#N canvas 101 124 523 363 10;
#X obj 50 60 inlet~;
#X obj 163 61 inlet;
#X text 157 43 position;
#X text 51 42 signal;
#X obj 182 239 line~;
#X obj 164 266 *~;
#X msg 229 210 0 10;
#X obj 180 102 moses 1;
#X obj 179 123 bng 15 250 50 0 empty empty empty 17 7 0 10 -262144
-1 -1;
#X msg 182 210 1 10;
#X obj 226 154 moses 0;
#X obj 227 175 bng 15 250 50 0 empty empty empty 17 7 0 10 -262144
-1 -1;
#X obj 271 175 bng 15 250 50 0 empty empty empty 17 7 0 10 -262144
-1 -1;
#X obj 164 295 outlet~;
#X obj 273 111 r \$1-samp-msec;
#X connect 0 0 5 0;
#X connect 1 0 7 0;
#X connect 4 0 5 1;
#X connect 5 0 13 0;
#X connect 6 0 4 0;
#X connect 7 0 8 0;
#X connect 7 1 10 0;
#X connect 8 0 6 0;
#X connect 9 0 4 0;
#X connect 10 0 11 0;
#X connect 10 1 12 0;
#X connect 11 0 9 0;
#X connect 12 0 6 0;
#X connect 14 0 10 1;
