#N canvas 751 216 628 593 12;
#X obj 124 4 inlet;
#X obj 114 202 int;
#X obj 114 228 + 1;
#X obj 33 161 bng 15 250 50 0 empty empty empty 17 7 0 10 -262144 -1
-1;
#X obj 33 215 delay 250;
#X msg 114 173 0;
#X obj 171 450 tabread \$1-freezes;
#X obj 236 286 * 4;
#X obj 167 338 + 0;
#X obj 236 249 - 1;
#X obj 171 482 route 1 2;
#X msg 171 507 4;
#X msg 205 507 5;
#X obj 171 557 s \$1-freeze-ctl;
#X obj 296 188 / 4;
#X obj 297 152 r dm_tempo;
#X obj 115 396 delay 50;
#X obj 367 369 r \$1-freeze-offset;
#X floatatom 358 223 5 0 0 0 - - -;
#X obj 171 424 int;
#X obj 130 259 moses 5;
#X obj 284 224 - 1;
#X obj 167 363 t b f;
#X obj 130 290 t b f;
#X obj 128 61 t b f;
#X connect 0 0 24 0;
#X connect 1 0 2 0;
#X connect 2 0 1 1;
#X connect 2 0 20 0;
#X connect 3 0 5 0;
#X connect 3 0 4 0;
#X connect 4 0 1 0;
#X connect 5 0 1 1;
#X connect 6 0 10 0;
#X connect 7 0 8 1;
#X connect 8 0 22 0;
#X connect 9 0 7 0;
#X connect 10 0 11 0;
#X connect 10 1 12 0;
#X connect 11 0 13 0;
#X connect 12 0 13 0;
#X connect 14 0 18 0;
#X connect 14 0 21 0;
#X connect 15 0 14 0;
#X connect 16 0 19 0;
#X connect 17 0 16 1;
#X connect 19 0 6 0;
#X connect 20 0 23 0;
#X connect 21 0 4 1;
#X connect 22 0 16 0;
#X connect 22 1 19 1;
#X connect 23 0 4 0;
#X connect 23 1 8 0;
#X connect 24 0 3 0;
#X connect 24 1 9 0;
