#N canvas 845 282 418 456 12;
#X obj 249 165 cos~;
#X obj 292 143 +~ -0.25;
#X obj 292 166 cos~;
#X obj 14 276 *~;
#X obj 80 276 *~;
#X obj 25 319 -~;
#X floatatom 249 94 5 0 0 0 - - -;
#X obj 249 119 phasor~;
#X obj 14 238 hilbert~;
#X obj 26 372 outlet~;
#X obj 23 33 inlet~;
#X obj 151 34 inlet~;
#X obj 152 269 *~;
#X obj 218 269 *~;
#X obj 163 312 -~;
#X obj 152 231 hilbert~;
#X obj 164 365 outlet~;
#X obj 253 37 inlet;
#X text 31 5 left;
#X text 160 14 right;
#X text 250 14 shift freq;
#X connect 0 0 3 1;
#X connect 0 0 12 1;
#X connect 1 0 2 0;
#X connect 2 0 4 1;
#X connect 2 0 13 1;
#X connect 3 0 5 0;
#X connect 4 0 5 1;
#X connect 5 0 9 0;
#X connect 6 0 7 0;
#X connect 7 0 1 0;
#X connect 7 0 0 0;
#X connect 8 0 3 0;
#X connect 8 1 4 0;
#X connect 10 0 8 0;
#X connect 11 0 15 0;
#X connect 12 0 14 0;
#X connect 13 0 14 1;
#X connect 14 0 16 0;
#X connect 15 0 12 0;
#X connect 15 1 13 0;
#X connect 17 0 6 0;
