#N canvas 160 56 903 717 12;
#X obj 236 626 outlet;
#X obj 44 75 inlet;
#X obj 138 39 inlet;
#X obj 73 240 spigot;
#X obj 185 260 spigot;
#X obj 200 185 t b;
#X msg 238 226 1;
#X msg 139 223 1;
#X msg 274 228 0;
#X msg 174 222 0;
#X text 239 261 (reverse);
#X obj 377 166 r \$1sampledur;
#X obj 73 287 int;
#X obj 230 353 pack 0 0;
#X obj 265 327 int;
#X obj 342 303 int;
#X msg 230 327 0;
#X obj 230 287 t b b b;
#X obj 30 471 int;
#X obj 30 495 pack 0 0;
#X obj 259 53 inlet;
#X obj 402 67 inlet;
#X obj 68 397 * -1;
#X obj 68 420 +;
#X obj 91 471 spigot;
#X obj 218 475 spigot;
#X text 268 468 (reverse);
#X text 105 653 outlet:grain onset position;
#X msg 333 338 set \$1;
#X obj 747 122 loadbang;
#X msg 394 401 set \$1;
#X obj 394 378 int;
#X msg 747 146 0;
#X obj 139 158 select 0;
#X obj 73 263 t b;
#X obj 269 196 spigot;
#X obj 260 79 t b b;
#X msg 299 129 0;
#X msg 447 101 1;
#X obj 488 130 inlet;
#X obj 569 96 inlet;
#X obj 646 108 inlet;
#X obj 619 357 - 0;
#X obj 333 271 * 1;
#X obj 44 99 t b b b;
#X obj 619 381 *;
#X obj 558 406 pack 0 0;
#X obj 556 492 spigot;
#X obj 448 435 sel;
#X obj 483 435 sel 0;
#X msg 483 461 0;
#X obj 736 252 del 20;
#X msg 749 280 1;
#X obj 558 380 spigot;
#X obj 680 365 spigot;
#X obj 680 449 pack 0 0;
#X text 411 10 inlets: 1)start sample (bang) 2)reverse (0/1 = off/on)
3)resume (bang) 4)freeze (bang) 5)sample offset ms 6)grain interval
ms 7)time stretch (1=normal speed);
#X msg 680 418 0;
#X obj 641 215 t b f;
#X obj 582 303 t f f;
#X obj 641 157 float;
#X obj 323 364 spigot;
#X obj 88 371 spigot;
#X obj 138 62 t b f b;
#X msg 191 89 0;
#X msg 120 119 1;
#X obj 587 180 float;
#X obj 582 277 float;
#X obj 793 403 * 1;
#X obj 680 393 t b;
#X obj 641 189 speedlimint 50;
#X msg 799 148 1;
#X obj 569 122 t b f;
#X msg 88 346 \$3 \, \$1 \$2;
#X obj 87 322 pack 0 0 0;
#X obj 358 315 - 0;
#X obj 514 287 * 1;
#X obj 509 220 * -1;
#X obj 514 258 + 0;
#X obj 551 237 t b f;
#X obj 230 434 line 0 \$2;
#X obj 286 502 metro \$2;
#X obj 238 530 float;
#X floatatom 358 93 5 0 0 0 - - -;
#X obj 215 558 moses 1;
#X obj 178 588 change 1;
#X connect 1 0 44 0;
#X connect 2 0 63 0;
#X connect 3 0 34 0;
#X connect 4 0 17 0;
#X connect 5 0 9 0;
#X connect 5 0 6 0;
#X connect 6 0 4 1;
#X connect 6 0 25 1;
#X connect 6 0 54 1;
#X connect 7 0 3 1;
#X connect 7 0 24 1;
#X connect 7 0 53 1;
#X connect 8 0 4 1;
#X connect 8 0 25 1;
#X connect 8 0 54 1;
#X connect 9 0 3 1;
#X connect 9 0 24 1;
#X connect 9 0 53 1;
#X connect 11 0 12 1;
#X connect 11 0 15 1;
#X connect 11 0 23 1;
#X connect 11 0 43 0;
#X connect 11 0 48 1;
#X connect 11 0 67 1;
#X connect 11 0 78 1;
#X connect 12 0 18 1;
#X connect 12 0 74 0;
#X connect 13 0 80 0;
#X connect 14 0 13 1;
#X connect 15 0 75 0;
#X connect 16 0 13 0;
#X connect 16 0 18 1;
#X connect 17 0 16 0;
#X connect 17 1 14 0;
#X connect 17 2 15 0;
#X connect 18 0 19 0;
#X connect 19 0 80 0;
#X connect 20 0 36 0;
#X connect 21 0 31 0;
#X connect 21 0 38 0;
#X connect 21 0 50 0;
#X connect 21 0 83 0;
#X connect 22 0 23 0;
#X connect 23 0 24 0;
#X connect 24 0 19 1;
#X connect 25 0 19 1;
#X connect 28 0 61 0;
#X connect 29 0 32 0;
#X connect 29 0 71 0;
#X connect 30 0 80 0;
#X connect 31 0 30 0;
#X connect 32 0 33 0;
#X connect 33 0 7 0;
#X connect 33 0 8 0;
#X connect 33 1 5 0;
#X connect 34 0 12 0;
#X connect 35 0 18 0;
#X connect 36 0 37 0;
#X connect 36 0 51 0;
#X connect 36 1 35 0;
#X connect 37 0 35 1;
#X connect 37 0 81 0;
#X connect 38 0 35 1;
#X connect 38 0 61 1;
#X connect 38 0 62 1;
#X connect 38 0 81 0;
#X connect 39 0 75 1;
#X connect 39 0 77 0;
#X connect 39 0 74 2;
#X connect 40 0 72 0;
#X connect 41 0 43 1;
#X connect 41 0 60 0;
#X connect 41 0 79 0;
#X connect 42 0 45 0;
#X connect 44 0 4 0;
#X connect 44 0 3 0;
#X connect 44 0 51 0;
#X connect 44 1 37 0;
#X connect 44 2 43 0;
#X connect 44 2 65 0;
#X connect 45 0 46 1;
#X connect 46 0 47 0;
#X connect 47 0 80 0;
#X connect 48 0 50 0;
#X connect 49 0 50 0;
#X connect 50 0 47 1;
#X connect 51 0 52 0;
#X connect 52 0 47 1;
#X connect 53 0 46 0;
#X connect 54 0 69 0;
#X connect 55 0 47 0;
#X connect 57 0 55 0;
#X connect 58 0 67 0;
#X connect 58 1 45 1;
#X connect 58 1 68 1;
#X connect 59 0 53 0;
#X connect 59 0 54 0;
#X connect 59 1 42 0;
#X connect 60 0 66 1;
#X connect 60 0 70 0;
#X connect 61 0 80 0;
#X connect 62 0 80 0;
#X connect 63 0 66 0;
#X connect 63 1 33 0;
#X connect 63 2 64 0;
#X connect 64 0 62 1;
#X connect 64 0 61 1;
#X connect 65 0 62 1;
#X connect 65 0 61 1;
#X connect 66 0 58 0;
#X connect 67 0 59 0;
#X connect 68 0 55 1;
#X connect 69 0 57 0;
#X connect 70 0 58 0;
#X connect 71 0 60 1;
#X connect 72 0 60 0;
#X connect 72 1 80 1;
#X connect 72 1 81 1;
#X connect 73 0 62 0;
#X connect 73 0 80 0;
#X connect 74 0 73 0;
#X connect 75 0 28 0;
#X connect 76 0 74 1;
#X connect 76 0 14 1;
#X connect 77 0 78 0;
#X connect 78 0 76 0;
#X connect 79 0 76 0;
#X connect 79 1 76 1;
#X connect 80 0 22 0;
#X connect 80 0 25 0;
#X connect 80 0 31 1;
#X connect 80 0 42 1;
#X connect 80 0 48 0;
#X connect 80 0 49 0;
#X connect 80 0 68 0;
#X connect 80 0 82 1;
#X connect 80 0 84 0;
#X connect 81 0 82 0;
#X connect 82 0 84 0;
#X connect 84 0 85 0;
#X connect 84 1 0 0;
#X connect 85 0 0 0;
