#N canvas 918 270 624 450 12;
#X obj 110 62 inlet;
#X msg 228 210 195;
#X obj 228 151 t b b;
#X obj 138 289 pack \$1 \$2 0 -1 0;
#X obj 156 145 int;
#X msg 107 344 \; \$1-step\$2bang-rcv color \$3 \$4 \$5;
#X obj 349 261 pack \$1 0;
#X msg 384 338 \; \$1-resetcolor\$2 bang;
#X obj 126 99 t b b f;
#X obj 251 252 t b f;
#X connect 0 0 8 0;
#X connect 1 0 9 0;
#X connect 2 0 1 0;
#X connect 2 1 6 0;
#X connect 3 0 5 0;
#X connect 4 0 3 1;
#X connect 4 0 6 1;
#X connect 6 0 7 0;
#X connect 8 0 2 0;
#X connect 8 1 4 0;
#X connect 8 2 4 1;
#X connect 9 0 3 0;
#X connect 9 1 3 2;
