#N canvas 74 14 584 470 10;
#X obj 80 221 line~;
#X obj 80 146 f;
#X obj 80 376 outlet~;
#X msg 80 200 0 \, \$1 \$2;
#X obj 80 174 pack 0 0;
#X obj 182 143 /;
#X obj 261 123 * 0.001;
#X obj 203 100 t b b f;
#X obj 144 65 t b f;
#X obj 278 231 adc~ 1;
#X obj 406 120 inlet;
#X obj 446 179 samplerate~;
#X obj 79 29 inlet;
#X obj 277 263 *~;
#X obj 355 220 del;
#X obj 406 152 t b b;
#X msg 394 219 1;
#X msg 393 244 0;
#X obj 79 313 hip~ 5;
#X obj 80 284 +~;
#X text 65 -37 play sample;
#X text 63 -17 once;
#X obj 80 246 tabread4~ \$1;
#X obj 446 203 s \$2-insamprate;
#X obj 475 260 s \$2-start;
#X obj 143 41 r \$2-samplength;
#X obj 203 74 r \$2-insamprate;
#X connect 0 0 22 0;
#X connect 1 0 4 0;
#X connect 3 0 0 0;
#X connect 4 0 3 0;
#X connect 5 0 4 1;
#X connect 5 0 14 1;
#X connect 6 0 5 1;
#X connect 7 1 5 0;
#X connect 7 2 6 0;
#X connect 8 1 5 0;
#X connect 8 1 1 1;
#X connect 9 0 13 0;
#X connect 10 0 15 0;
#X connect 11 0 23 0;
#X connect 12 0 1 0;
#X connect 12 0 24 0;
#X connect 13 0 19 1;
#X connect 14 0 17 0;
#X connect 15 0 16 0;
#X connect 15 0 14 0;
#X connect 15 0 24 0;
#X connect 15 1 11 0;
#X connect 16 0 13 1;
#X connect 17 0 13 1;
#X connect 18 0 2 0;
#X connect 19 0 18 0;
#X connect 22 0 19 0;
#X connect 25 0 8 0;
#X connect 26 0 7 0;
