#N canvas 18 346 740 527 10;
#X obj 102 175 sel 0 1;
#X obj 102 358 del;
#X msg 54 237 stop;
#X obj 240 11 inlet;
#X obj 283 11 inlet;
#X obj 143 257 tgl 15 0 empty empty empty 17 7 0 10 -262144 -1 -1 1
1;
#X obj 338 11 inlet;
#X obj 381 11 inlet;
#X text 261 -10 upper;
#X text 354 -10 lower;
#X obj 441 10 inlet;
#X obj 484 10 inlet;
#X text 457 -11 time;
#X obj 172 272 sel 0 1;
#X obj 201 426 pack;
#X obj 209 537 outlet;
#X obj 102 8 inlet;
#X obj 124 230 t b b b b;
#X obj 172 332 + \$1;
#X obj 172 303 random \$2;
#X obj 238 334 + \$3;
#X obj 238 304 random \$4;
#X obj 303 335 + \$5;
#X obj 303 305 random \$6;
#X obj 166 144 tgl 15 0 empty empty empty 17 7 0 10 -262144 -1 -1 0
1;
#X floatatom 321 379 5 0 0 0 - - -, f 5;
#X obj 124 195 t b b;
#X obj 256 470 f \$1;
#X obj 239 97 * 100;
#X obj 195 393 / 100;
#X obj 540 8 loadbang;
#X floatatom 284 103 5 0 0 0 - - -, f 5;
#X obj 557 87 f \$2;
#X floatatom 240 81 5 0 0 0 - - -, f 5;
#X obj 540 65 f \$1;
#X obj 270 374 / 100;
#X obj 540 29 t b b b b b b;
#X obj 284 122 * 100;
#X obj 337 175 * 100;
#X floatatom 382 181 5 0 0 0 - - -, f 5;
#X floatatom 338 159 5 0 0 0 - - -, f 5;
#X obj 382 200 * 100;
#X obj 576 143 f \$3;
#X obj 593 165 f \$4;
#X obj 440 254 * 100;
#X floatatom 485 260 5 0 0 0 - - -, f 5;
#X floatatom 441 238 5 0 0 0 - - -, f 5;
#X obj 485 279 * 100;
#X obj 610 222 f \$5;
#X obj 627 244 f \$6;
#X text 281 30 rand;
#X text 240 31 add;
#X connect 0 0 2 0;
#X connect 0 1 26 0;
#X connect 1 0 17 0;
#X connect 2 0 1 0;
#X connect 3 0 33 0;
#X connect 4 0 31 0;
#X connect 5 0 13 0;
#X connect 6 0 40 0;
#X connect 7 0 39 0;
#X connect 10 0 46 0;
#X connect 11 0 45 0;
#X connect 13 0 19 0;
#X connect 13 1 21 0;
#X connect 14 0 15 0;
#X connect 16 0 0 0;
#X connect 17 0 1 0;
#X connect 17 1 5 0;
#X connect 17 2 23 0;
#X connect 18 0 29 0;
#X connect 19 0 18 0;
#X connect 20 0 29 0;
#X connect 21 0 20 0;
#X connect 22 0 25 0;
#X connect 22 0 35 0;
#X connect 23 0 22 0;
#X connect 24 0 0 0;
#X connect 26 0 17 0;
#X connect 26 1 27 0;
#X connect 27 0 15 0;
#X connect 28 0 18 1;
#X connect 29 0 14 0;
#X connect 30 0 36 0;
#X connect 31 0 37 0;
#X connect 32 0 31 0;
#X connect 33 0 28 0;
#X connect 34 0 33 0;
#X connect 35 0 14 1;
#X connect 35 0 1 1;
#X connect 36 0 34 0;
#X connect 36 1 32 0;
#X connect 36 2 42 0;
#X connect 36 3 43 0;
#X connect 36 4 48 0;
#X connect 36 5 49 0;
#X connect 37 0 19 1;
#X connect 38 0 20 1;
#X connect 39 0 41 0;
#X connect 40 0 38 0;
#X connect 41 0 21 1;
#X connect 42 0 40 0;
#X connect 43 0 39 0;
#X connect 44 0 22 1;
#X connect 45 0 47 0;
#X connect 46 0 44 0;
#X connect 47 0 23 1;
#X connect 48 0 46 0;
#X connect 49 0 45 0;
