#N canvas 0 50 727 410 10;
#X obj 174 272 *~;
#X obj 232 271 *~;
#X floatatom 302 115 5 0 0 0 - - -, f 5;
#X obj 406 67 hsl 128 15 0 100 0 0 empty empty empty -2 -8 0 10 -262144
-1 -1 6300 1;
#X obj 302 137 * 1.57;
#X obj 341 166 cos;
#X floatatom 295 197 5 0 0 0 - - -, f 5;
#X floatatom 341 197 5 0 0 0 - - -, f 5;
#X obj 295 166 sin;
#X obj 119 88 inlet~;
#X obj 174 302 outlet~;
#X obj 233 303 outlet~;
#X obj 287 37 inlet;
#X msg 341 218 \$1 10;
#X obj 341 239 line~;
#X msg 295 218 \$1 10;
#X obj 295 239 line~;
#X obj 377 35 inlet;
#X obj 352 88 / 100;
#X connect 0 0 10 0;
#X connect 1 0 11 0;
#X connect 2 0 4 0;
#X connect 3 0 18 0;
#X connect 4 0 5 0;
#X connect 4 0 8 0;
#X connect 5 0 7 0;
#X connect 6 0 15 0;
#X connect 7 0 13 0;
#X connect 8 0 6 0;
#X connect 9 0 0 0;
#X connect 9 0 1 0;
#X connect 12 0 2 0;
#X connect 13 0 14 0;
#X connect 14 0 1 1;
#X connect 15 0 16 0;
#X connect 16 0 0 1;
#X connect 17 0 18 0;
#X connect 18 0 2 0;
